# xmcd
#
# Track frame offsets:
#	183
#	10975
#	28575
#	44688
#	59065
#	71283
#	85450
#	101870
#	112260
#	125758
#	138085
#	147960
#	162495
#	175863
#
# Disc length: 2568 seconds
# Revision: 1
# Processed by: cddbd v1.5.2PL0 Copyright (c) Steve Scherf et al.
# Submitted via: dBpowerAMP V12.0
#
DISCID=d40a060e
DTITLE=Muldoon Brothers - Back O' the Barn
DYEAR=1992
DGENRE=Folk-Rock
TTITLE0=Cotton Eyed Joe
TTITLE1=The Devil Went Down to Georgia
TTITLE2=I Love the Sound of a Whistle
TTITLE3=Cajun Moon
TTITLE4=Back O' the Barn
TTITLE5=Truck Drivin Man
TTITLE6=Following the Trail
TTITLE7=Louisiana Saturday Night
TTITLE8=Indian Reservation
TTITLE9=The Ballad of Sally Anne
TTITLE10=Buffalo Gals
TTITLE11=Brandin' Time
TTITLE12=Kaw-Liga
TTITLE13=Cigarettes and Whiskey
EXTD=
EXTT0=
EXTT1=
EXTT2=
EXTT3=
EXTT4=
EXTT5=
EXTT6=
EXTT7=
EXTT8=
EXTT9=
EXTT10=
EXTT11=
EXTT12=
EXTT13=
PLAYORDER=
